<svg width="100" height="100" xmlns="http://www.w3.org/2000/svg">

 <g>
  <title>background</title>
  <rect fill="none" id="canvas_background" height="402" width="582" y="-1" x="-1"/>
 </g>
 <g>
  <title>Layer 1</title>
  <path id="svg_1" d="m31.6,3.5c-25.7,10.1 -38.2,39.2 -28.1,64.9c10.1,25.7 39.2,38.3 64.9,28.1l-3.1,-7.9c-21.3,8.4 -45.4,-2 -53.8,-23.3c-8.4,-21.3 2,-45.4 23.3,-53.8l-3.2,-8z" fill="#fff"/>
  <path id="svg_2" d="m42.3,39.6c5.7,-4.3 13.9,-3.1 18.1,2.7c4.3,5.7 3.1,13.9 -2.7,18.1l4.1,5.5c8.8,-6.5 10.6,-19 4.1,-27.7c-6.5,-8.8 -19,-10.6 -27.7,-4.1l4.1,5.5z" fill="#fff"/>
  <path id="svg_3" d="m82,35.7c-7.9,-17.7 -28.6,-25.6 -46.3,-17.7s-25.6,28.6 -17.7,46.3l7.6,-3.4c-6,-13.5 0,-29.3 13.5,-35.3s29.3,0 35.3,13.5l7.6,-3.4z" fill="#fff"/>
 </g>
</svg>